<?xml version="1.0" encoding="UTF-8" standalone="no"?>
<!DOCTYPE svg PUBLIC "-//W3C//DTD SVG 1.1//EN" "http://www.w3.org/Graphics/SVG/1.1/DTD/svg11.dtd">
<svg width="100%" height="100%" viewBox="0 0 287 189" version="1.1" xmlns="http://www.w3.org/2000/svg" xmlns:xlink="http://www.w3.org/1999/xlink" xml:space="preserve" xmlns:serif="http://www.serif.com/" style="fill-rule:evenodd;clip-rule:evenodd;stroke-linejoin:round;stroke-miterlimit:1.41421;">
    <g transform="matrix(1,0,0,1,-156.755,-146.228)">
        <g transform="matrix(0.14443,0,0,0.14443,126.271,-116.86)">
            <path d="M395.065,3123.59C293.444,3123.59 211.063,3041.21 211.063,2939.59C211.063,2898.86 211.063,2867.05 211.063,2865.27C211.063,2865.26 211.066,2865.25 211.071,2865.24L211.063,2865.24L772.682,1977.2L614.507,1977.2L614.507,1821.57L1176.47,1821.57L1176.47,1977.2L1048.47,1977.2L1048.47,2714.24L1419.55,2714.24L1419.55,2262.42L1741.91,2262.42L1741.91,2418.19L1575.71,2418.19L1575.71,2696.85C1606.76,2704.95 1638.75,2709 1671.71,2709C1772.95,2709 1859.39,2673.27 1931.03,2601.82C2002.67,2530.37 2038.49,2444.15 2038.49,2343.16C2038.49,2242.18 2002.67,2155.96 1931.03,2084.51C1859.39,2012.58 1772.95,1976.62 1671.71,1976.62C1622.04,1976.62 1574.28,1986.38 1528.43,2005.91L1468.26,1862.29C1532.73,1835.14 1600.55,1821.57 1671.71,1821.57C1815.93,1821.57 1939.15,1872.53 2041.35,1974.47C2143.55,2076.41 2194.65,2199.31 2194.65,2343.16C2194.65,2487.02 2143.55,2609.92 2041.35,2711.86C1939.15,2813.79 1815.93,2864.76 1671.71,2864.76C1670.77,2864.76 1669.84,2864.76 1668.91,2864.75L1668.9,2864.76L1048.47,2864.76L1048.47,2865.24L892.707,2865.24L892.707,2626.59L545.455,2626.59L394.721,2865.19L394.721,2865.19L395.092,2960.97L2194.65,2960.97L2194.65,2960.97C2194.65,3004.71 2177.28,3046.66 2146.35,3077.59C2115.42,3108.52 2073.47,3125.89 2029.73,3125.89C1642.99,3125.89 682.696,3123.59 395.722,3123.59L395.065,3123.59ZM1161.01,2978.37L1138.13,2978.37L1138.13,3109.2L1161.01,3109.2L1161.01,2978.37ZM1267.59,2978.19L1180.72,2978.19L1180.72,2998.05L1212.66,2998.05L1212.66,3109.2L1235.64,3109.2L1235.64,2998.05L1267.59,2998.05L1267.59,2978.19ZM892.707,2471.54L892.707,2077.85L643.343,2471.54L892.707,2471.54Z"/>
        </g>
    </g>
</svg>
